<svg xmlns="http://www.w3.org/2000/svg" version="1.1" xmlns:xlink="http://www.w3.org/1999/xlink" xmlns:svgjs="http://svgjs.com/svgjs"  x="0" y="0" viewBox="0 0 32 32" style="enable-background:new 0 0 512 512" xml:space="preserve" class=""><g><path xmlns="http://www.w3.org/2000/svg" d="M28.472,5H3.528A2.531,2.531,0,0,0,1,7.528V24.472A2.531,2.531,0,0,0,3.528,27H28.472A2.531,2.531,0,0,0,31,24.472V7.528A2.531,2.531,0,0,0,28.472,5ZM3.528,7H28.472A.529.529,0,0,1,29,7.528V10H3V7.528A.529.529,0,0,1,3.528,7ZM28.472,25H3.528A.529.529,0,0,1,3,24.472V12H29V24.472A.529.529,0,0,1,28.472,25Z"  data-original="#000000"></path><path xmlns="http://www.w3.org/2000/svg" d="M16,21H6a1,1,0,0,0,0,2H16a1,1,0,0,0,0-2Z"  data-original="#000000"></path></g></svg>