<svg xmlns="http://www.w3.org/2000/svg" version="1.1" xmlns:xlink="http://www.w3.org/1999/xlink" xmlns:svgjs="http://svgjs.com/svgjs"  x="0" y="0" viewBox="0 0 32 32" style="enable-background:new 0 0 512 512" xml:space="preserve" class=""><g><g xmlns="http://www.w3.org/2000/svg" transform="translate(-168 -84)"><g transform="translate(3.382 -1.136)"><path d="m194.618 94.136c0-.796-.316-1.559-.879-2.121-.562-.563-1.325-.879-2.121-.879-4.843 0-17.157 0-22 0-.796 0-1.559.316-2.121.879-.563.562-.879 1.325-.879 2.121v14c0 .796.316 1.559.879 2.121.562.563 1.325.879 2.121.879h22c.796 0 1.559-.316 2.121-.879.563-.562.879-1.325.879-2.121zm-2 0v14c0 .265-.105.52-.293.707-.188.188-.442.293-.707.293-4.843 0-17.157 0-22 0-.265 0-.52-.105-.707-.293-.188-.187-.293-.442-.293-.707 0-3.463 0-10.537 0-14 0-.265.105-.52.293-.707.187-.188.442-.293.707-.293h22c.265 0 .519.105.707.293.188.187.293.442.293.707zm-17 7c-1.656 0-3-1.344-3-3s1.344-3 3-3 3 1.344 3 3-1.344 3-3 3c2.759 0 5 2.24 5 5 0 .552-.448 1-1 1h-8c-.552 0-1-.448-1-1 0-2.76 2.24-5 5-5zm2.829 4c-.412-1.165-1.524-2-2.829-2s-2.417.835-2.829 2zm4.171-1h5c.552 0 1-.448 1-1s-.448-1-1-1h-5c-.552 0-1 .448-1 1s.448 1 1 1zm0-4h6.967c.551 0 1-.448 1-1s-.449-1-1-1h-6.967c-.552 0-1 .448-1 1s.448 1 1 1zm-7-3c.552 0 1 .448 1 1s-.448 1-1 1-1-.448-1-1 .448-1 1-1z"  data-original="#000000" class=""></path></g></g></g></svg>