<svg xmlns="http://www.w3.org/2000/svg" version="1.1" xmlns:xlink="http://www.w3.org/1999/xlink" xmlns:svgjs="http://svgjs.com/svgjs"  x="0" y="0" viewBox="0 0 24 24" style="enable-background:new 0 0 512 512" xml:space="preserve" class=""><g><path xmlns="http://www.w3.org/2000/svg" d="m14.876 2.672a3.309 3.309 0 0 0 -5.752 0l-8.71 15.518a3.178 3.178 0 0 0 .029 3.189 3.264 3.264 0 0 0 2.847 1.621h17.42a3.264 3.264 0 0 0 2.847-1.621 3.178 3.178 0 0 0 .029-3.189zm-2.876 16.328a1 1 0 1 1 1-1 1 1 0 0 1 -1 1zm1-5a1 1 0 0 1 -2 0v-6a1 1 0 0 1 2 0z"  data-original="#000000" class=""></path></g></svg>